<?xml version="1.0" encoding="UTF-8" standalone="no"?><svg xmlns="http://www.w3.org/2000/svg" xmlns:xlink="http://www.w3.org/1999/xlink" contentScriptType="application/ecmascript" contentStyleType="text/css" height="1045px" preserveAspectRatio="none" style="width:1824px;height:1045px;" version="1.1" viewBox="0 0 1824 1045" width="1824px" zoomAndPan="magnify"><defs><filter height="300%" id="fpav7m0qwgw60" width="300%" x="-1" y="-1"><feGaussianBlur result="blurOut" stdDeviation="2.0"/><feColorMatrix in="blurOut" result="blurOut2" type="matrix" values="0 0 0 0 0 0 0 0 0 0 0 0 0 0 0 0 0 0 .4 0"/><feOffset dx="4.0" dy="4.0" in="blurOut2" result="blurOut3"/><feBlend in="SourceGraphic" in2="blurOut3" mode="normal"/></filter></defs><g><!--MD5=[352717ecaba5408769be821b904ea218]
cluster fxui--><polygon fill="#FFFFFF" filter="url(#fpav7m0qwgw60)" points="1154,581,1189,581,1196,603.2969,1802,603.2969,1802,940,1154,940,1154,581" style="stroke: #000000; stroke-width: 1.5;"/><line style="stroke: #000000; stroke-width: 1.5;" x1="1154" x2="1196" y1="603.2969" y2="603.2969"/><text fill="#000000" font-family="sans-serif" font-size="14" font-weight="bold" lengthAdjust="spacingAndGlyphs" textLength="29" x="1158" y="595.9951">fxui</text><!--MD5=[64e2e010ba86d7988e5cd73bd64f61f9]
cluster ui--><polygon fill="#FFFFFF" filter="url(#fpav7m0qwgw60)" points="1162,765,1182,765,1189,787.2969,1320,787.2969,1320,932,1162,932,1162,765" style="stroke: #000000; stroke-width: 1.5;"/><line style="stroke: #000000; stroke-width: 1.5;" x1="1162" x2="1189" y1="787.2969" y2="787.2969"/><text fill="#000000" font-family="sans-serif" font-size="14" font-weight="bold" lengthAdjust="spacingAndGlyphs" textLength="14" x="1166" y="779.9951">ui</text><!--MD5=[b807c419160b58238376fa0add39d2a4]
cluster ui.chatbot--><polygon fill="#FFFFFF" filter="url(#fpav7m0qwgw60)" points="1328,608,1413,608,1420,630.2969,1562,630.2969,1562,836,1328,836,1328,608" style="stroke: #000000; stroke-width: 1.5;"/><line style="stroke: #000000; stroke-width: 1.5;" x1="1328" x2="1420" y1="630.2969" y2="630.2969"/><text fill="#000000" font-family="sans-serif" font-size="14" font-weight="bold" lengthAdjust="spacingAndGlyphs" textLength="79" x="1332" y="622.9951">ui.chatbot</text><!--MD5=[b143ef6fddb0915aa97b08dfbe255a80]
cluster ui.remote--><polygon fill="#FFFFFF" filter="url(#fpav7m0qwgw60)" points="1570,765,1652,765,1659,787.2969,1794,787.2969,1794,836,1570,836,1570,765" style="stroke: #000000; stroke-width: 1.5;"/><line style="stroke: #000000; stroke-width: 1.5;" x1="1570" x2="1659" y1="787.2969" y2="787.2969"/><text fill="#000000" font-family="sans-serif" font-size="14" font-weight="bold" lengthAdjust="spacingAndGlyphs" textLength="76" x="1574" y="779.9951">ui.remote</text><!--MD5=[01435ace8273dc3cae88e7f376e4d373]
cluster core--><polygon fill="#FFFFFF" filter="url(#fpav7m0qwgw60)" points="114,16,156,16,163,38.2969,1005,38.2969,1005,687,114,687,114,16" style="stroke: #000000; stroke-width: 1.5;"/><line style="stroke: #000000; stroke-width: 1.5;" x1="114" x2="163" y1="38.2969" y2="38.2969"/><text fill="#000000" font-family="sans-serif" font-size="14" font-weight="bold" lengthAdjust="spacingAndGlyphs" textLength="36" x="118" y="30.9951">core</text><!--MD5=[c1bda55c96052ab4b1e8209c8d07db13]
cluster core.chatbot--><polygon fill="#FFFFFF" filter="url(#fpav7m0qwgw60)" points="122,54,229,54,236,76.2969,597,76.2969,597,679,122,679,122,54" style="stroke: #000000; stroke-width: 1.5;"/><line style="stroke: #000000; stroke-width: 1.5;" x1="122" x2="236" y1="76.2969" y2="76.2969"/><text fill="#000000" font-family="sans-serif" font-size="14" font-weight="bold" lengthAdjust="spacingAndGlyphs" textLength="101" x="126" y="68.9951">core.chatbot</text><!--MD5=[abdfa24facaa5caf46ef93de9f09fb7a]
cluster core.chatbot.prompt--><polygon fill="#FFFFFF" filter="url(#fpav7m0qwgw60)" points="605,43,774,43,781,65.2969,997,65.2969,997,136,605,136,605,43" style="stroke: #000000; stroke-width: 1.5;"/><line style="stroke: #000000; stroke-width: 1.5;" x1="605" x2="781" y1="65.2969" y2="65.2969"/><text fill="#000000" font-family="sans-serif" font-size="14" font-weight="bold" lengthAdjust="spacingAndGlyphs" textLength="163" x="609" y="57.9951">core.chatbot.prompt</text><!--MD5=[e8fb55672b3db8f76201c41055a42003]
cluster resources/studit/db--><path d="M1013,252 C1013,242 1099,242 1099,242 C1099,242 1185,242 1185,252 L1185,318 C1185,328 1099,328 1099,328 C1099,328 1013,328 1013,318 L1013,252 " fill="#FFFFFF" filter="url(#fpav7m0qwgw60)" style="stroke: #000000; stroke-width: 1.5;"/><path d="M1013,252 C1013,262 1099,262 1099,262 C1099,262 1185,262 1185,252 " fill="none" style="stroke: #000000; stroke-width: 1.5;"/><text fill="#000000" font-family="sans-serif" font-size="14" font-weight="bold" lengthAdjust="spacingAndGlyphs" textLength="156" x="1021" y="276.9951">resources/studit/db</text><!--MD5=[f7cab0dbd7f354492deaa54be612571f]
entity AppController--><rect fill="#FEFECE" filter="url(#fpav7m0qwgw60)" height="36.2969" style="stroke: #A80036; stroke-width: 1.5;" width="114" x="1177" y="792"/><rect fill="#FEFECE" height="5" style="stroke: #A80036; stroke-width: 1.5;" width="10" x="1172" y="797"/><rect fill="#FEFECE" height="5" style="stroke: #A80036; stroke-width: 1.5;" width="10" x="1172" y="818.2969"/><text fill="#000000" font-family="sans-serif" font-size="14" lengthAdjust="spacingAndGlyphs" textLength="94" x="1187" y="814.9951">AppController</text><!--MD5=[c3177ca00fbed315422a5a07ca9046b8]
entity ChatbotController--><rect fill="#FEFECE" filter="url(#fpav7m0qwgw60)" height="36.2969" style="stroke: #A80036; stroke-width: 1.5;" width="142" x="1170" y="888"/><rect fill="#FEFECE" height="5" style="stroke: #A80036; stroke-width: 1.5;" width="10" x="1165" y="893"/><rect fill="#FEFECE" height="5" style="stroke: #A80036; stroke-width: 1.5;" width="10" x="1165" y="914.2969"/><text fill="#000000" font-family="sans-serif" font-size="14" lengthAdjust="spacingAndGlyphs" textLength="122" x="1180" y="910.9951">ChatbotController</text><!--MD5=[7cea0504e8cf45094c2de341d7a384ca]
entity Commands--><rect fill="#FEFECE" filter="url(#fpav7m0qwgw60)" height="36.2969" style="stroke: #A80036; stroke-width: 1.5;" width="99" x="1336.5" y="635"/><rect fill="#FEFECE" height="5" style="stroke: #A80036; stroke-width: 1.5;" width="10" x="1331.5" y="640"/><rect fill="#FEFECE" height="5" style="stroke: #A80036; stroke-width: 1.5;" width="10" x="1331.5" y="661.2969"/><text fill="#000000" font-family="sans-serif" font-size="14" lengthAdjust="spacingAndGlyphs" textLength="79" x="1346.5" y="657.9951">Commands</text><!--MD5=[4045eb211beef465bc78b3f0cdb8dfec]
entity Message--><rect fill="#FEFECE" filter="url(#fpav7m0qwgw60)" height="36.2969" style="stroke: #A80036; stroke-width: 1.5;" width="83" x="1470.5" y="635"/><rect fill="#FEFECE" height="5" style="stroke: #A80036; stroke-width: 1.5;" width="10" x="1465.5" y="640"/><rect fill="#FEFECE" height="5" style="stroke: #A80036; stroke-width: 1.5;" width="10" x="1465.5" y="661.2969"/><text fill="#000000" font-family="sans-serif" font-size="14" lengthAdjust="spacingAndGlyphs" textLength="63" x="1480.5" y="657.9951">Message</text><!--MD5=[ba10dac4ec4ae27e4fd48f3ece18af77]
entity Prompt--><rect fill="#FEFECE" filter="url(#fpav7m0qwgw60)" height="36.2969" style="stroke: #A80036; stroke-width: 1.5;" width="70" x="1336" y="792"/><rect fill="#FEFECE" height="5" style="stroke: #A80036; stroke-width: 1.5;" width="10" x="1331" y="797"/><rect fill="#FEFECE" height="5" style="stroke: #A80036; stroke-width: 1.5;" width="10" x="1331" y="818.2969"/><text fill="#000000" font-family="sans-serif" font-size="14" lengthAdjust="spacingAndGlyphs" textLength="50" x="1346" y="814.9951">Prompt</text><!--MD5=[be6e98b9c1e8d0c080df4e700ed33e58]
entity RemoteStuditModelAccess--><rect fill="#FEFECE" filter="url(#fpav7m0qwgw60)" height="36.2969" style="stroke: #A80036; stroke-width: 1.5;" width="207" x="1578.5" y="792"/><rect fill="#FEFECE" height="5" style="stroke: #A80036; stroke-width: 1.5;" width="10" x="1573.5" y="797"/><rect fill="#FEFECE" height="5" style="stroke: #A80036; stroke-width: 1.5;" width="10" x="1573.5" y="818.2969"/><text fill="#000000" font-family="sans-serif" font-size="14" lengthAdjust="spacingAndGlyphs" textLength="187" x="1588.5" y="814.9951">RemoteStuditModelAccess</text><!--MD5=[6c1038c56275e06a0f9aecf03cf54920]
entity Chatbot--><rect fill="#FEFECE" filter="url(#fpav7m0qwgw60)" height="36.2969" style="stroke: #A80036; stroke-width: 1.5;" width="75" x="496.5" y="635"/><rect fill="#FEFECE" height="5" style="stroke: #A80036; stroke-width: 1.5;" width="10" x="491.5" y="640"/><rect fill="#FEFECE" height="5" style="stroke: #A80036; stroke-width: 1.5;" width="10" x="491.5" y="661.2969"/><text fill="#000000" font-family="sans-serif" font-size="14" lengthAdjust="spacingAndGlyphs" textLength="55" x="506.5" y="657.9951">Chatbot</text><!--MD5=[d51c942f08a229d04216ddf6836d57c2]
entity ChatbotManager--><rect fill="#FEFECE" filter="url(#fpav7m0qwgw60)" height="36.2969" style="stroke: #A80036; stroke-width: 1.5;" width="135" x="358.5" y="476"/><rect fill="#FEFECE" height="5" style="stroke: #A80036; stroke-width: 1.5;" width="10" x="353.5" y="481"/><rect fill="#FEFECE" height="5" style="stroke: #A80036; stroke-width: 1.5;" width="10" x="353.5" y="502.2969"/><text fill="#000000" font-family="sans-serif" font-size="14" lengthAdjust="spacingAndGlyphs" textLength="115" x="368.5" y="498.9951">ChatbotManager</text><!--MD5=[0992849261c915408b095f0a861b2b06]
entity CommandManager--><rect fill="#FEFECE" filter="url(#fpav7m0qwgw60)" height="36.2969" style="stroke: #A80036; stroke-width: 1.5;" width="151" x="167.5" y="380"/><rect fill="#FEFECE" height="5" style="stroke: #A80036; stroke-width: 1.5;" width="10" x="162.5" y="385"/><rect fill="#FEFECE" height="5" style="stroke: #A80036; stroke-width: 1.5;" width="10" x="162.5" y="406.2969"/><text fill="#000000" font-family="sans-serif" font-size="14" lengthAdjust="spacingAndGlyphs" textLength="131" x="177.5" y="402.9951">CommandManager</text><!--MD5=[ded1614f8f53e44138f81bafcb8590bf]
entity KeywordLinker--><rect fill="#FEFECE" filter="url(#fpav7m0qwgw60)" height="36.2969" style="stroke: #A80036; stroke-width: 1.5;" width="120" x="219" y="284"/><rect fill="#FEFECE" height="5" style="stroke: #A80036; stroke-width: 1.5;" width="10" x="214" y="289"/><rect fill="#FEFECE" height="5" style="stroke: #A80036; stroke-width: 1.5;" width="10" x="214" y="310.2969"/><text fill="#000000" font-family="sans-serif" font-size="14" lengthAdjust="spacingAndGlyphs" textLength="100" x="229" y="306.9951">KeywordLinker</text><!--MD5=[526ddd62bbe25a54679ffac05ab09979]
entity KeywordLink--><rect fill="#FEFECE" filter="url(#fpav7m0qwgw60)" height="36.2969" style="stroke: #A80036; stroke-width: 1.5;" width="106" x="383" y="81"/><rect fill="#FEFECE" height="5" style="stroke: #A80036; stroke-width: 1.5;" width="10" x="378" y="86"/><rect fill="#FEFECE" height="5" style="stroke: #A80036; stroke-width: 1.5;" width="10" x="378" y="107.2969"/><text fill="#000000" font-family="sans-serif" font-size="14" lengthAdjust="spacingAndGlyphs" textLength="86" x="393" y="103.9951">KeywordLink</text><!--MD5=[ab23e76dd41ca38b19f75eccd9d963a3]
entity Match--><rect fill="#FEFECE" filter="url(#fpav7m0qwgw60)" height="36.2969" style="stroke: #A80036; stroke-width: 1.5;" width="62" x="248" y="188"/><rect fill="#FEFECE" height="5" style="stroke: #A80036; stroke-width: 1.5;" width="10" x="243" y="193"/><rect fill="#FEFECE" height="5" style="stroke: #A80036; stroke-width: 1.5;" width="10" x="243" y="214.2969"/><text fill="#000000" font-family="sans-serif" font-size="14" lengthAdjust="spacingAndGlyphs" textLength="42" x="258" y="210.9951">Match</text><!--MD5=[abd0ad01589357b3baa3551a551ab5d8]
entity Response--><rect fill="#FEFECE" filter="url(#fpav7m0qwgw60)" height="36.2969" style="stroke: #A80036; stroke-width: 1.5;" width="91" x="497.5" y="380"/><rect fill="#FEFECE" height="5" style="stroke: #A80036; stroke-width: 1.5;" width="10" x="492.5" y="385"/><rect fill="#FEFECE" height="5" style="stroke: #A80036; stroke-width: 1.5;" width="10" x="492.5" y="406.2969"/><text fill="#000000" font-family="sans-serif" font-size="14" lengthAdjust="spacingAndGlyphs" textLength="71" x="507.5" y="402.9951">Response</text><!--MD5=[611efb516456d614fde45d1243a78c0a]
entity Datamatcher--><rect fill="#FEFECE" filter="url(#fpav7m0qwgw60)" height="36.2969" style="stroke: #A80036; stroke-width: 1.5;" width="109" x="353.5" y="380"/><rect fill="#FEFECE" height="5" style="stroke: #A80036; stroke-width: 1.5;" width="10" x="348.5" y="385"/><rect fill="#FEFECE" height="5" style="stroke: #A80036; stroke-width: 1.5;" width="10" x="348.5" y="406.2969"/><text fill="#000000" font-family="sans-serif" font-size="14" lengthAdjust="spacingAndGlyphs" textLength="89" x="363.5" y="402.9951">Datamatcher</text><!--MD5=[ae57e94ef6e8cfa4ad1165376bfb4cda]
entity InformationRequestExecutor--><rect fill="#FEFECE" filter="url(#fpav7m0qwgw60)" height="36.2969" style="stroke: #A80036; stroke-width: 1.5;" width="217" x="130.5" y="81"/><rect fill="#FEFECE" height="5" style="stroke: #A80036; stroke-width: 1.5;" width="10" x="125.5" y="86"/><rect fill="#FEFECE" height="5" style="stroke: #A80036; stroke-width: 1.5;" width="10" x="125.5" y="107.2969"/><text fill="#000000" font-family="sans-serif" font-size="14" lengthAdjust="spacingAndGlyphs" textLength="197" x="140.5" y="103.9951">InformationRequestExecutor</text><!--MD5=[a0bc1bf9c8c942bda163830b6490d0b3]
entity Func--><ellipse cx="640" cy="99" fill="#FEFECE" filter="url(#fpav7m0qwgw60)" rx="8" ry="8" style="stroke: #A80036; stroke-width: 2.0;"/><text fill="#000000" font-family="sans-serif" font-size="14" lengthAdjust="spacingAndGlyphs" textLength="34" x="623" y="128.9951">Func</text><!--MD5=[4213c4d782ec391ed087233d30fe64b8]
entity ActionRequest--><rect fill="#FEFECE" filter="url(#fpav7m0qwgw60)" height="36.2969" style="stroke: #A80036; stroke-width: 1.5;" width="122" x="702" y="81"/><rect fill="#FEFECE" height="5" style="stroke: #A80036; stroke-width: 1.5;" width="10" x="697" y="86"/><rect fill="#FEFECE" height="5" style="stroke: #A80036; stroke-width: 1.5;" width="10" x="697" y="107.2969"/><text fill="#000000" font-family="sans-serif" font-size="14" lengthAdjust="spacingAndGlyphs" textLength="102" x="712" y="103.9951">ActionRequest</text><!--MD5=[6876d5126daba4fb5a706fb4de4779f0]
entity PromptManager--><rect fill="#FEFECE" filter="url(#fpav7m0qwgw60)" height="36.2969" style="stroke: #A80036; stroke-width: 1.5;" width="130" x="859" y="81"/><rect fill="#FEFECE" height="5" style="stroke: #A80036; stroke-width: 1.5;" width="10" x="854" y="86"/><rect fill="#FEFECE" height="5" style="stroke: #A80036; stroke-width: 1.5;" width="10" x="854" y="107.2969"/><text fill="#000000" font-family="sans-serif" font-size="14" lengthAdjust="spacingAndGlyphs" textLength="110" x="869" y="103.9951">PromptManager</text><!--MD5=[85ef8f20081bb96137331cafba6fc641]
entity keywordLink.json--><rect fill="#FEFECE" filter="url(#fpav7m0qwgw60)" height="36.2969" style="stroke: #A80036; stroke-width: 1.5;" width="138" x="1021" y="284"/><rect fill="#FEFECE" height="5" style="stroke: #A80036; stroke-width: 1.5;" width="10" x="1016" y="289"/><rect fill="#FEFECE" height="5" style="stroke: #A80036; stroke-width: 1.5;" width="10" x="1016" y="310.2969"/><text fill="#000000" font-family="sans-serif" font-size="14" lengthAdjust="spacingAndGlyphs" textLength="118" x="1031" y="306.9951">keywordLink.json</text><!--MD5=[b1435b213846e3ddcd1e6c1cd6b83b9a]
entity Server--><path d="M1653.4249,992.3491 C1657.4698,983.7993 1663.8819,984.5036 1669.5445,990.5644 C1673.6148,984.0374 1678.5842,985.3079 1682.4841,990.7486 C1687.9303,983.3665 1694.5779,984.502 1698.3023,992.5174 C1702.4509,987.3635 1708.4086,986.6302 1711.5501,993.6164 C1720.6475,995.9939 1721.4326,1001.3776 1715.4788,1007.896 C1720.3099,1014.0213 1720.752,1018.6189 1712.7381,1022.3002 C1709.0219,1029.7065 1704.1347,1031.1598 1697.9083,1025.0555 C1694.8906,1032.7557 1688.4681,1032.7294 1683.3671,1027.3764 C1678.4109,1033.3925 1671.0654,1032.9699 1668.7696,1024.6647 C1664.3376,1030.8812 1658.9236,1030.1557 1655.0184,1024.0756 C1645.0558,1021.2595 1643.3543,1015.6683 1650.397,1007.972 C1643.1856,1001.003 1644.5389,996.1983 1653.4249,992.3491 " fill="#FEFECE" style="stroke: #000000; stroke-width: 1.5;"/><text fill="#000000" font-family="sans-serif" font-size="14" lengthAdjust="spacingAndGlyphs" textLength="44" x="1660" y="1011.9951">Server</text><!--MD5=[8e45e3e8297d80403e9bdea84c9aed24]
link AppController to ChatbotController--><path d="M1235.3166,828.0569 C1236.4436,843.5126 1238.0735,865.8647 1239.2991,882.6731 " fill="none" id="AppController-&gt;ChatbotController" style="stroke: #A80036; stroke-width: 1.0;"/><polygon fill="#A80036" points="1239.6655,887.6977,1243.0002,878.4306,1239.3018,882.7109,1235.0214,879.0125,1239.6655,887.6977" style="stroke: #A80036; stroke-width: 1.0;"/><!--MD5=[160a8ff6eaaf47e2eaeaa130648a228c]
link Message to ChatbotController--><path d="M1508.0752,671.0111 C1499.2901,707.2151 1474.7113,789.3271 1424,836 C1394.4192,863.2252 1353.147,880.232 1317.2835,890.6527 " fill="none" id="Message-&gt;ChatbotController" style="stroke: #A80036; stroke-width: 1.0;"/><polygon fill="#A80036" points="1312.0334,892.1429,1321.7836,893.5334,1316.8434,890.7776,1319.5992,885.8374,1312.0334,892.1429" style="stroke: #A80036; stroke-width: 1.0;"/><!--MD5=[4987eb8d01894d53f0f0415b7a617663]
link Commands to Prompt--><path d="M1384.2793,671.0099 C1381.5586,699.4862 1376.2635,754.9087 1373.2466,786.4855 " fill="none" id="Commands-&gt;Prompt" style="stroke: #A80036; stroke-width: 1.0;"/><polygon fill="#A80036" points="1372.7468,791.7165,1377.5849,783.1379,1373.2225,786.7392,1369.6212,782.3768,1372.7468,791.7165" style="stroke: #A80036; stroke-width: 1.0;"/><!--MD5=[e6830936bd7262d22d1658e6c4b126cc]
link RemoteStuditModelAccess to Server--><path d="M1682,833.5118 C1682,869.8674 1682,939.6004 1682,978.6773 " fill="none" id="RemoteStuditModelAccess-Server" style="stroke: #A80036; stroke-width: 1.0;"/><polygon fill="#A80036" points="1682,983.7495,1686,974.7495,1682,978.7495,1678,974.7495,1682,983.7495" style="stroke: #A80036; stroke-width: 1.0;"/><polygon fill="#A80036" points="1682,828.1802,1678,837.1802,1682,833.1802,1686,837.1802,1682,828.1802" style="stroke: #A80036; stroke-width: 1.0;"/><!--MD5=[707de765881a0efdcfd76152469cf108]
link RemoteStuditModelAccess to ChatbotController--><path d="M1605.2262,828.0201 C1593.4367,830.7301 1581.3989,833.4645 1570,836 C1483.6103,855.2161 1384.2035,876.2127 1317.4683,890.1473 " fill="none" id="RemoteStuditModelAccess-&gt;ChatbotController" style="stroke: #A80036; stroke-width: 1.0;"/><polygon fill="#A80036" points="1312.3198,891.2218,1321.9472,893.2986,1317.2143,890.2002,1320.3127,885.4674,1312.3198,891.2218" style="stroke: #A80036; stroke-width: 1.0;"/><!--MD5=[2aa8ec30dca4d6be0717dfbe8bf207ce]
link Chatbot to AppController--><path d="M571.635,661.441 C686.0003,687.0915 1030.2544,764.3028 1171.9921,796.0925 " fill="none" id="Chatbot-&gt;AppController" style="stroke: #A80036; stroke-width: 1.0;"/><polygon fill="#A80036" points="1176.948,797.204,1169.0416,791.3313,1172.0692,796.1097,1167.2908,799.1373,1176.948,797.204" style="stroke: #A80036; stroke-width: 1.0;"/><!--MD5=[c10916cf40323355892fcdbf4e946c2a]
link ChatbotManager to Chatbot--><path d="M438.389,512.2393 C458.2453,541.4722 497.1476,598.745 518.7051,630.4825 " fill="none" id="ChatbotManager-&gt;Chatbot" style="stroke: #A80036; stroke-width: 1.0;"/><polygon fill="#A80036" points="521.7555,634.9734,520.0075,625.2809,518.9461,630.8373,513.3897,629.7759,521.7555,634.9734" style="stroke: #A80036; stroke-width: 1.0;"/><!--MD5=[4efd1505023c86dedf5a317c32ff78a0]
link CommandManager to ChatbotManager--><path d="M277.4209,416.0569 C308.5061,432.3638 354.2252,456.3476 386.7267,473.3976 " fill="none" id="CommandManager-&gt;ChatbotManager" style="stroke: #A80036; stroke-width: 1.0;"/><polygon fill="#A80036" points="391.4228,475.8612,385.3111,468.138,386.9951,473.5384,381.5947,475.2224,391.4228,475.8612" style="stroke: #A80036; stroke-width: 1.0;"/><!--MD5=[c5bf53e6372bbebfe71687e83c37b640]
link KeywordLinker to ChatbotManager--><path d="M230.409,320.0654 C182.4362,340.6824 120.2462,376.6722 150,416 C174.4975,448.3802 279.7939,471.1599 353.0006,483.43 " fill="none" id="KeywordLinker-&gt;ChatbotManager" style="stroke: #A80036; stroke-width: 1.0;"/><polygon fill="#A80036" points="358.2145,484.2953,349.991,478.8756,353.282,483.4766,348.681,486.7676,358.2145,484.2953" style="stroke: #A80036; stroke-width: 1.0;"/><!--MD5=[6c925f66d179687e7e2a7ce5f3206c34]
link KeywordLink to KeywordLinker--><path d="M422.0673,117.0149 C393.3937,154.0897 327.8434,238.8458 296.4225,279.4729 " fill="none" id="KeywordLink-&gt;KeywordLinker" style="stroke: #A80036; stroke-width: 1.0;"/><polygon fill="#A80036" points="293.1272,283.7337,301.7973,279.0615,296.1861,279.7785,295.469,274.1673,293.1272,283.7337" style="stroke: #A80036; stroke-width: 1.0;"/><!--MD5=[c81e0ced3dc164251d145a7fd4b28f6f]
link Match to KeywordLinker--><path d="M279,224.0569 C279,239.5126 279,261.8647 279,278.6731 " fill="none" id="Match-&gt;KeywordLinker" style="stroke: #A80036; stroke-width: 1.0;"/><polygon fill="#A80036" points="279,283.6977,283,274.6977,279,278.6977,275,274.6977,279,283.6977" style="stroke: #A80036; stroke-width: 1.0;"/><!--MD5=[3b24a489fee3810ce435c3ef3cf54916]
link Response to ChatbotManager--><path d="M520.9932,416.0569 C501.5069,432.0456 473.0262,455.4144 452.3353,472.3916 " fill="none" id="Response-&gt;ChatbotManager" style="stroke: #A80036; stroke-width: 1.0;"/><polygon fill="#A80036" points="448.3059,475.6977,457.8008,473.081,452.1712,472.5261,452.7262,466.8965,448.3059,475.6977" style="stroke: #A80036; stroke-width: 1.0;"/><!--MD5=[54e71a41018d89f2376aab3abda9cf9e]
link Datamatcher to ChatbotManager--><path d="M411.3857,416.0569 C414.2836,431.5126 418.4746,453.8647 421.6262,470.6731 " fill="none" id="Datamatcher-&gt;ChatbotManager" style="stroke: #A80036; stroke-width: 1.0;"/><polygon fill="#A80036" points="422.5683,475.6977,424.8409,466.1146,421.6467,470.7834,416.978,467.5892,422.5683,475.6977" style="stroke: #A80036; stroke-width: 1.0;"/><!--MD5=[96f952eecd6ab03371fd0f4da6caf209]
link InformationRequestExecutor to ChatbotController--><path d="M188.1551,117.1009 C119.5973,145.1515 6,206.0995 6,302 C6,302 6,302 6,731.5 C6,849.1011 895.315,892.7698 1164.6298,903.298 " fill="none" id="InformationRequestExecutor-&gt;ChatbotController" style="stroke: #A80036; stroke-width: 1.0;"/><polygon fill="#A80036" points="1169.7148,903.4957,1160.877,899.149,1164.7186,903.3014,1160.5662,907.143,1169.7148,903.4957" style="stroke: #A80036; stroke-width: 1.0;"/><!--MD5=[cc7ccc0da7a13179c1fed5b03eb213bf]
link Func to Prompt--><path d="M634.2756,108.0608 C628.1827,116.8425 617.6811,129.7276 605,136 C506.6519,184.6458 199.2309,118.9025 114,188 C72.6214,221.5461 77,248.7315 77,302 C77,302 77,302 77,653 C77,792.556 1201.5081,706.0452 1328,765 C1338.7737,770.0214 1348.2279,779.0359 1355.5074,787.6849 " fill="none" id="Func-&gt;Prompt" style="stroke: #A80036; stroke-width: 1.0;"/><polygon fill="#A80036" points="1358.9025,791.8823,1356.3524,782.3693,1355.758,787.9948,1350.1325,787.4004,1358.9025,791.8823" style="stroke: #A80036; stroke-width: 1.0;"/><!--MD5=[e17a48873fca9a20cbeab57ef3f72258]
link ActionRequest to Prompt--><path d="M798.7147,117.0441 C812.1094,123.46 827.5799,130.4593 842,136 C1010.2443,200.6451 1212,121.7637 1212,302 C1212,302 1212,302 1212,653 C1212,724.6645 1277.457,714.1944 1328,765 C1335.3305,772.3686 1343.2229,780.5528 1350.2201,787.8995 " fill="none" id="ActionRequest-&gt;Prompt" style="stroke: #A80036; stroke-width: 1.0;"/><polygon fill="#A80036" points="1354.006,791.8843,1350.7069,782.6044,1350.5621,788.2594,1344.9071,788.1146,1354.006,791.8843" style="stroke: #A80036; stroke-width: 1.0;"/><!--MD5=[d1e5bd75548a797db87c612711736cab]
link PromptManager to Prompt--><path d="M989.1084,110.4299 C1069.9027,125.7791 1201.5007,154.9718 1238,188 C1278.3896,224.5485 1283,247.5288 1283,302 C1283,302 1283,302 1283,653 C1283,706.8272 1322.8474,759.3038 1348.9146,787.8739 " fill="none" id="PromptManager-&gt;Prompt" style="stroke: #A80036; stroke-width: 1.0;"/><polygon fill="#A80036" points="1352.3375,791.5755,1349.1642,782.2519,1348.943,787.9044,1343.2904,787.6831,1352.3375,791.5755" style="stroke: #A80036; stroke-width: 1.0;"/><!--MD5=[c6cb533713d65fff9e315997de68fdde]
link Prompt to ChatbotController--><path d="M1346.548,828.0569 C1324.8064,844.1122 1292.9874,867.6093 1269.9745,884.6035 " fill="none" id="Prompt-&gt;ChatbotController" style="stroke: #A80036; stroke-width: 1.0;"/><polygon fill="#A80036" points="1265.7844,887.6977,1275.4005,885.5691,1269.8066,884.7275,1270.6482,879.1336,1265.7844,887.6977" style="stroke: #A80036; stroke-width: 1.0;"/><!--MD5=[fea8cff52cf21a3b43c6de0e77ff9fac]
link keywordLink.json to ChatbotManager--><path d="M1022.6301,321.4804 C895.2218,358.3214 620.3613,437.7991 493.1347,474.5875 " fill="none" id="keywordLink.json-ChatbotManager" style="stroke: #A80036; stroke-width: 1.0;"/><polygon fill="#A80036" points="488.3007,475.9853,498.0576,477.3277,493.1039,474.5963,495.8353,469.6426,488.3007,475.9853" style="stroke: #A80036; stroke-width: 1.0;"/><polygon fill="#A80036" points="1027.5325,320.0629,1017.7756,318.7205,1022.7293,321.4519,1019.9979,326.4056,1027.5325,320.0629" style="stroke: #A80036; stroke-width: 1.0;"/><!--MD5=[cb51320096c8ffb92d5d5dfc8eac51fb]
@startuml
cloud Server

package "fxui" {
  folder "ui" {
    [AppController] - -> [ChatbotController]
  }
 
  folder "ui.chatbot" {
    [Commands]
    [Message] - - -> ChatbotController
    Commands - - -> [Prompt]
  }

  folder "ui.remote" {
    [RemoteStuditModelAccess] <- - -> Server
    RemoteStuditModelAccess - -> ChatbotController
  }
  
}

package "core" {

  folder "core.chatbot" {
    [Chatbot] - - -> AppController
    [ChatbotManager] - - -> Chatbot
    [CommandManager] - -> ChatbotManager
    [KeywordLinker] - - -> ChatbotManager
    [KeywordLink] - - -> KeywordLinker
    [Match] - -> KeywordLinker
    [Response] - -> ChatbotManager
    [Datamatcher] - -> ChatbotManager
    [InformationRequestExecutor] - -> ChatbotController
  }

  folder "core.chatbot.prompt" {
    interface Func
    Func - -> Prompt
    [ActionRequest] - -> Prompt
    [PromptManager] - -> Prompt
    Prompt - -> ChatbotController
  }

}

database "resources/studit/db" {
  [keywordLink.json] <- - -> ChatbotManager
}
@enduml

PlantUML version 1.2019.12(Sun Nov 03 10:24:54 UTC 2019)
(GPL source distribution)
Java Runtime: OpenJDK Runtime Environment
JVM: OpenJDK 64-Bit Server VM
Java Version: 1.8.0_232-heroku-b09
Operating System: Linux
Default Encoding: UTF-8
Language: en
Country: US
--></g></svg>